<?xml version="1.0" encoding="iso-8859-1"?>
<!-- Generator: Adobe Illustrator 16.0.0, SVG Export Plug-In . SVG Version: 6.00 Build 0)  -->
<!DOCTYPE svg PUBLIC "-//W3C//DTD SVG 1.1//EN" "http://www.w3.org/Graphics/SVG/1.1/DTD/svg11.dtd">
<svg version="1.1" id="Capa_1" xmlns="http://www.w3.org/2000/svg" xmlns:xlink="http://www.w3.org/1999/xlink" x="0px" y="0px"
	 width="550.801px" height="550.801px" viewBox="0 0 550.801 550.801" style="enable-background:new 0 0 550.801 550.801;"
	 xml:space="preserve">
<g>
	<path d="M539.943,300.189c-10.674,0-21.469,0.031-32.143-0.023c-1.555-0.008-2.16-0.148-3.941-0.307
		c-1.641-0.146-2.02-1.586-2.02-3.232c0-14.656,0-28.782,0-43.145c0-1.646-2.344-2.98-3.99-2.98c-12.895,0-25.605,0.006-37.814,0
		c-9.609-0.006-9.873-0.012-9.885-9.835c-0.006-12.381-0.129-25.239-0.129-38.293c0-1.646-1.463-3.458-3.109-3.458
		c-14.914,0-29.1,0-43.844,0c-1.633,0-5.268-0.374-5.268-2.014c0-14.761,0-28.929,0-43.525c0-1.646-0.184-2.98-1.824-2.98
		c-11.604-0.012-21.971-0.08-32.92,0.024c-14.148,0.128-12.105-1.885-12.221,12.821c-0.086,11.083,0.115,21.897,0.121,32.969
		c0,1.646-1.188,2.711-2.834,2.711c-24.436,0-48.598,0-72.717,0s-48.281,0-72.718,0c-1.646,0-2.98-1.065-2.98-2.711
		c0.006-11.065,0.067-22.02-0.018-33.103c-0.116-14.713,1.64-12.626-12.509-12.754c-10.949-0.104-20.747,0-32.351,0.012
		c-1.646-0.006-1.83,1.365-1.83,3.011c0,14.596,0,28.764,0,43.525c0,1.64-3.635,2.014-5.282,2.014c-14.737,0-28.929,0-43.844,0
		c-1.646,0-2.98,1.817-2.98,3.458c0,13.054,0.006,25.673,0,38.048c-0.006,9.822-0.018,9.951-9.626,9.957
		c-12.209,0.006-25.422,0.061-38.317,0.061c-1.646,0-3.99,1.396-3.99,3.042c0,14.357,0,28.483,0,43.145
		c0,1.646-0.318,3.086-1.958,3.232c-1.781,0.158-2.833,0.299-4.388,0.307c-10.673,0.055-21.334,0.023-32.007,0.023
		C-0.006,300.189,0,300.195,0,310.477c0,56.598,0,113.203,0,169.801c0,5.201,0,10.41,0,15.887c0,1.646,1.805,2.631,3.452,2.631
		c14.755,0,28.751,0,43.281,0c1.652,0,2.228-0.984,2.228-2.631c0-47.65,0-94.977,0-142.834c0-1.646,2.087-1.408,3.733-1.408
		c15.166,0,29.78,0,44.958,0c1.653-0.006,0.27-0.244,0.27,1.402c0,30.936,0,61.695,0,93.402c0,1.646,4.045,3.109,5.691,3.109
		c14.945,0,29.321,0,43.654,0c1.646,0,4.425-0.006,4.351,0.061l0.019-0.023c0.349,0.264,1.365,1.395,1.365,2.814
		c0,14.328,0,28.678,0,43.416c0,1.641-1.42,2.691,0.227,2.691c31.524,0,62.161,0,93.146,0c1.64,0,4.547-1.051,4.547-2.697
		c0-14.236,0-28.195,0-43.152c0-1.641-2.907-3.109-4.553-3.109c-31.182,0-62.29,0-93.397,0c-0.734,0-1.083,0-1.279-0.006
		c0.171-0.012,1.31-1.354,1.31-2.846c0-14.578,0-29.174,0-44.145c0-1.646-1.671-1.965-0.031-1.965c40.906,0,81.628,0,122.431,0
		c40.801,0,81.524,0,122.43,0c1.641,0-0.029,0.318-0.029,1.965c0,14.971,0,29.566,0,44.145c0,1.498,1.15,2.852,1.309,2.852l0,0
		c0.012,0.012,0.043,0.043,0.043,0.043c0.018-0.018,0.043-0.031,0.055-0.043l0,0c-0.012,0.012-0.037,0.023-0.061,0.043
		c0,0,0.023,0.023,0.018,0.018c-0.055-0.066,2.725-0.061,4.371-0.061c14.338,0,28.709,0,43.652,0c1.646,0,5.693-1.463,5.693-3.109
		c0-31.707,0-62.467,0-93.402c0-1.646-1.385-1.408,0.262-1.408c15.178,0,29.799,0,44.959,0c1.645,0,3.732-0.238,3.732,1.408
		c0,47.863,0,95.189,0,142.834c0,1.646,0.574,2.631,2.221,2.631c14.535,0,28.525,0,43.281,0c1.658,0.006,3.465-0.979,3.465-2.625
		c0-5.477,0-10.68,0-15.887c0-56.598,0-113.203,0-169.801C550.801,300.195,550.555,300.189,539.943,300.189z M250.92,296.982
		c0,1.646-2.411,5.973-4.058,5.973c-31.322,0-62.081,0-93.348,0c-1.64,0-0.514-4.326-0.514-5.973c0-14.656,0-29.186,0-44.076
		c0-1.646-1.126-5.03,0.514-5.03c31.132,0,62.204,0,93.342,0c1.646,0,4.064,3.384,4.064,5.03
		C250.92,267.821,250.92,282.338,250.92,296.982z M397.285,302.955c-31.266,0-62.025,0-93.348,0c-1.646,0-4.057-4.326-4.057-5.973
		c0-14.645,0-29.162,0-44.076c0-1.646,2.416-5.03,4.057-5.03c31.139,0,62.217,0,93.342,0c1.646,0,0.521,3.384,0.521,5.03
		c0,14.89,0,29.42,0,44.076C397.801,298.629,398.926,302.955,397.285,302.955z"/>
	<path d="M304.434,449.836c-1.646,0-4.553,1.469-4.553,3.115c0,14.951,0,28.91,0,43.152c0,1.641,2.906,2.691,4.547,2.691
		c30.984,0,61.615,0,93.146,0c1.646,0,0.227-1.051,0.227-2.697c0-14.738,0-29.09,0-43.416c0-1.42,1.016-2.547,1.357-2.803
		c0,0-0.029-0.043-0.043-0.043c-0.195,0-0.551,0-1.285,0C366.723,449.836,335.615,449.836,304.434,449.836z"/>
	<path d="M454.68,100.996c14.174,0,28.018,0,42.086,0c1.646,0,5.074-3.25,5.074-4.89c0-14.357,0-28.427,0-42.767
		c0-1.646-3.428-1.304-5.074-1.304c-14.125,0-27.961,0-42.086,0c-1.646,0-1.799-0.343-1.799,1.304c0,14.388,0,28.452,0,42.767
		C452.881,97.746,453.033,100.996,454.68,100.996z"/>
	<path d="M404.367,149.956c14.033,0,27.742,0,42.094,0c1.645,0,0.299-2.484,0.299-4.131c0-14.314,0-28.127,0-42.093
		c0-1.646,1.346-2.736-0.299-2.736c-14.297,0-28.244,0-42.094,0c-1.646,0-0.447,1.09-0.447,2.736c0,14.241,0,28.073,0,42.087
		C403.92,147.465,402.721,149.956,404.367,149.956z"/>
	<path d="M54.033,100.996c14.076,0,27.914,0,42.087,0c1.646,0,1.799-3.25,1.799-4.89c0-14.314,0-28.378,0-42.767
		c0-1.646-0.153-1.304-1.799-1.304c-14.125,0-27.962,0-42.087,0c-1.646,0-5.073-0.343-5.073,1.304c0,14.333,0,28.403,0,42.767
		C48.96,97.746,52.387,100.996,54.033,100.996z"/>
	<path d="M104.34,149.956c14.352,0,28.06,0,42.093,0c1.646,0,0.447-2.491,0.447-4.131c0-14.015,0-27.852,0-42.087
		c0-1.652,1.2-2.742-0.447-2.742c-13.85,0-27.797,0-42.093,0c-1.646,0-0.3,1.09-0.3,2.736c0,13.96,0,27.779,0,42.093
		C104.04,147.471,102.693,149.956,104.34,149.956z"/>
</g>
<g>
</g>
<g>
</g>
<g>
</g>
<g>
</g>
<g>
</g>
<g>
</g>
<g>
</g>
<g>
</g>
<g>
</g>
<g>
</g>
<g>
</g>
<g>
</g>
<g>
</g>
<g>
</g>
<g>
</g>
</svg>
