<?xml version="1.0" encoding="iso-8859-1"?>
<!-- Generator: Adobe Illustrator 16.0.0, SVG Export Plug-In . SVG Version: 6.00 Build 0)  -->
<!DOCTYPE svg PUBLIC "-//W3C//DTD SVG 1.1//EN" "http://www.w3.org/Graphics/SVG/1.1/DTD/svg11.dtd">
<svg version="1.1" id="Capa_1" xmlns="http://www.w3.org/2000/svg" xmlns:xlink="http://www.w3.org/1999/xlink" x="0px" y="0px"
	 width="588.875px" height="588.875px" viewBox="0 0 588.875 588.875" style="enable-background:new 0 0 588.875 588.875;"
	 xml:space="preserve">
<g>
	<g>
		<path d="M520.788,201.344c1.003,3.456,1.84,6.899,2.468,10.326c0.604,3.301,1.045,6.581,1.285,9.841
			c0.155,2.101,0.27,4.198,0.27,6.279c0,48.495-41.318,71.2-75.981,81.707c-36.194,10.971-85.256,16.079-154.392,16.079
			s-118.193-5.108-154.391-16.079c-34.664-10.507-75.982-33.207-75.982-81.707c0-2.077,0.11-4.174,0.265-6.279
			c0.241-3.252,0.681-6.537,1.285-9.841c0.624-3.419,1.448-6.862,2.448-10.318C25.423,222.124,0,249.06,0,278.868
			c0,34.798,34.652,65.672,90.895,87.394l-38.85,99.193c-17.1,3.027-29.462,11.709-29.462,21.962
			c0,12.771,19.147,23.122,42.767,23.122s42.767-10.352,42.767-23.122c0-6.81-5.479-12.913-14.141-17.144l35.79-91.376
			c46.72,12.64,103.212,19.955,164.673,19.955s117.953-7.312,164.673-19.955l35.79,91.376c-8.666,4.23-14.142,10.334-14.142,17.144
			c0,12.771,19.147,23.122,42.767,23.122s42.767-10.352,42.767-23.122c0-10.253-12.362-18.939-29.462-21.962l-38.85-99.193
			c56.243-21.726,90.895-52.6,90.895-87.394C588.875,249.051,563.44,222.115,520.788,201.344z"/>
		<path d="M294.438,305.172c115.966,0,209.973-14.745,209.973-77.381c0-5.483-0.763-11.159-2.153-16.936
			c-0.804-3.341-1.853-6.716-3.097-10.114c-1.281-3.497-2.746-7.009-4.468-10.535c-26.843-54.933-106.342-111.87-200.255-111.87
			c-93.914,0-173.412,56.937-200.254,111.861c-1.726,3.529-3.191,7.042-4.468,10.535c-1.245,3.399-2.293,6.777-3.097,10.114
			c-1.391,5.777-2.154,11.457-2.154,16.936C84.464,290.427,178.472,305.172,294.438,305.172z"/>
	</g>
</g>
<g>
</g>
<g>
</g>
<g>
</g>
<g>
</g>
<g>
</g>
<g>
</g>
<g>
</g>
<g>
</g>
<g>
</g>
<g>
</g>
<g>
</g>
<g>
</g>
<g>
</g>
<g>
</g>
<g>
</g>
</svg>
