<?xml version="1.0" encoding="iso-8859-1"?>
<!-- Generator: Adobe Illustrator 16.0.0, SVG Export Plug-In . SVG Version: 6.00 Build 0)  -->
<!DOCTYPE svg PUBLIC "-//W3C//DTD SVG 1.1//EN" "http://www.w3.org/Graphics/SVG/1.1/DTD/svg11.dtd">
<svg version="1.1" id="Capa_1" xmlns="http://www.w3.org/2000/svg" xmlns:xlink="http://www.w3.org/1999/xlink" x="0px" y="0px"
	 width="565.476px" height="565.476px" viewBox="0 0 565.476 565.476" style="enable-background:new 0 0 565.476 565.476;"
	 xml:space="preserve">
<g>
	<g>
		<path d="M63.939,550.168c18.482-32.774,77.295-130.683,131.825-152.841c-11.42-28.911-12.722-59.609-2.823-80.854
			c-3.146-18.687-5.292-38.128-6.442-58.107C149.354,287.338,65.567,371.831,58.411,548.662
			C58.138,555.419,60.622,556.056,63.939,550.168z"/>
		<path d="M501.536,546.268c3.321,5.887,5.802,5.251,5.528-1.506c-7.177-177.239-91.339-261.724-128.353-290.508
			c-1.081,21.424-3.289,42.256-6.646,62.22c9.494,20.371,8.646,49.429-1.501,77.271
			C424.849,416.572,483.147,513.664,501.536,546.268z"/>
		<path d="M325.9,31.555c-3.199-5.047-6.532-9.555-9.988-13.472C305.659,6.459,294.37,0,282.505,0
			c-11.865,0-23.154,6.459-33.407,18.083c-3.456,3.917-6.789,8.425-9.988,13.472c9.246,6.712,24.864,11.812,43.395,11.812
			C301.037,43.366,316.655,38.262,325.9,31.555z"/>
		<path d="M282.505,247.991c23.652,0,42.894-28.613,42.894-63.787c0-35.174-19.241-63.787-42.894-63.787
			c-23.652,0-42.897,28.613-42.897,63.787C239.608,219.377,258.849,247.991,282.505,247.991z M282.505,140.944
			c16.725,0,30.282,19.368,30.282,43.26s-13.558,43.26-30.282,43.26c-16.724,0-30.282-19.368-30.282-43.26
			S265.781,140.944,282.505,140.944z"/>
		<path d="M205.124,314.902c0.196,1.167,0.375,2.362,0.58,3.521c-0.119,0.204-0.212,0.433-0.327,0.641
			c-10.269,18.657-8.54,47.989,2.203,74.696c11.049,27.483,31.624,52.135,58.528,59.445l-10.188-134.085
			c-0.257-3.398,0.91-6.748,3.228-9.249c2.317-2.497,5.569-3.921,8.976-3.921h39.486c3.407,0,6.659,1.42,8.977,3.921
			s3.484,5.851,3.227,9.249l-9.877,130.001c22.644-10.783,39.743-34.06,48.943-59.099c9.372-25.504,10.519-52.795,0.935-70.592
			c-0.176-0.326-0.322-0.682-0.51-1.004c0.338-1.913,0.64-3.876,0.958-5.818c3.428-20.856,5.696-43.333,6.569-66.912
			c0.27-7.222,0.428-14.529,0.428-21.938c0-70.89-12.501-134.036-31.986-175.032c-13.04,8.727-31.682,14.141-52.771,14.141
			s-39.731-5.414-52.771-14.141c-19.486,40.996-31.987,104.142-31.987,175.032c0,8.812,0.204,17.499,0.579,26.046
			C199.342,272.748,201.684,294.608,205.124,314.902z M282.505,108.72c30.103,0,54.595,33.86,54.595,75.484
			s-24.492,75.488-54.595,75.488c-30.106,0-54.594-33.864-54.594-75.488S252.398,108.72,282.505,108.72z"/>
		<path d="M278.539,455.238l0.469,6.173l0.465,6.141l7.059,92.886c0.367,3.357,0.853,5.038,1.334,5.038s0.967-1.681,1.334-5.038
			l7.152-94.13l0.481-6.328l0.486-6.394l10.285-135.387h-39.487L278.539,455.238z"/>
	</g>
</g>
<g>
</g>
<g>
</g>
<g>
</g>
<g>
</g>
<g>
</g>
<g>
</g>
<g>
</g>
<g>
</g>
<g>
</g>
<g>
</g>
<g>
</g>
<g>
</g>
<g>
</g>
<g>
</g>
<g>
</g>
</svg>
